<svg width="1082px" height="436px" viewBox="0 0 1082 436" version="1.1" xmlns="http://www.w3.org/2000/svg">
  <g id="concentric_circles" transform="translate(0 -646)">
    <path d="M0 541C0 467.622 14.1716 397.428 42.5149 330.418C69.893 265.694 108.54 208.373 158.455 158.455C208.373 108.538 265.694 69.8917 330.418 42.5149C397.431 14.1716 467.625 0 541 0C614.375 0 684.569 14.1716 751.582 42.5149C816.298 69.8881 873.619 108.535 923.545 158.455C973.452 208.37 1012.1 265.691 1039.49 330.418C1067.83 397.431 1082 467.625 1082 541C1082 614.37 1067.83 684.564 1039.49 751.582C1012.11 816.314 973.463 873.635 923.545 923.545C873.619 973.468 816.298 1012.11 751.582 1039.49C684.564 1067.83 614.37 1082 541 1082C467.625 1082 397.431 1067.83 330.418 1039.49C265.697 1012.11 208.376 973.463 158.455 923.545C108.537 873.63 69.8904 816.309 42.5149 751.582C14.1716 684.569 0 614.375 0 541L0 541ZM2 541C2 614.109 16.119 684.044 44.3569 750.803C71.6294 815.288 110.134 872.398 159.869 922.131C209.608 971.866 266.717 1010.37 331.197 1037.64C397.967 1065.88 467.901 1080 541 1080C614.104 1080 684.039 1065.88 750.803 1037.64C815.278 1010.38 872.387 971.872 922.13 922.131C971.866 872.398 1010.37 815.288 1037.64 750.803C1065.88 684.036 1080 614.102 1080 541C1080 467.896 1065.88 397.962 1037.64 331.197C1010.37 266.709 971.866 209.6 922.13 159.869C872.392 110.133 815.283 71.6287 750.803 44.3569C684.039 16.119 614.104 2 541 2C467.896 2 397.962 16.119 331.197 44.3569C266.712 71.632 209.602 110.136 159.869 159.869C110.136 209.602 71.632 266.712 44.3569 331.197C16.119 397.956 2 467.891 2 541L2 541Z" id="circle_1" fill="#710C76" fill-rule="evenodd" stroke="none" />
    <path d="M40 540C40 472.048 53.1238 407.044 79.3715 344.988C104.725 285.049 140.515 231.967 186.74 185.74C232.967 139.513 286.049 103.724 345.988 78.3715C408.046 52.1238 473.05 39 541 39C608.95 39 673.954 52.1238 736.012 78.3714C795.943 103.721 849.026 139.51 895.26 185.74C941.478 231.964 977.268 285.047 1002.63 344.988C1028.88 407.046 1042 472.05 1042 540C1042 607.945 1028.88 672.949 1002.63 735.012C977.277 794.958 941.488 848.041 895.26 894.261C849.026 940.493 795.943 976.282 736.012 1001.63C673.949 1027.88 608.945 1041 541 1041C473.05 1041 408.046 1027.88 345.988 1001.63C286.052 976.277 232.969 940.488 186.74 894.261C140.512 848.036 104.723 794.953 79.3715 735.012C53.1238 672.954 40 607.95 40 540L40 540ZM41.8517 540C41.8517 607.704 54.9267 672.467 81.0768 734.291C106.333 794.008 141.99 846.895 188.049 892.951C234.109 939.01 286.996 974.667 346.709 999.923C408.542 1026.07 473.305 1039.15 540.999 1039.15C608.698 1039.15 673.462 1026.07 735.29 999.923C794.998 974.672 847.885 939.014 893.95 892.951C940.009 846.895 975.666 794.008 1000.92 734.291C1027.07 672.46 1040.15 607.697 1040.15 540C1040.15 472.301 1027.07 407.537 1000.92 345.709C975.666 285.989 940.009 233.103 893.95 187.049C847.89 140.99 795.003 105.333 735.29 80.0773C673.462 53.9272 608.698 40.8521 540.999 40.8521C473.3 40.8521 408.537 53.9272 346.709 80.0773C286.991 105.336 234.104 140.993 188.049 187.049C141.993 233.105 106.335 285.992 81.0768 345.709C54.9267 407.533 41.8517 472.296 41.8517 540L41.8517 540Z" id="circle_2" fill="#770877" fill-rule="evenodd" stroke="none" />
    <path d="M80 541C80 478.473 92.076 418.659 116.228 361.558C139.558 306.405 172.49 257.56 215.024 215.024C257.56 172.488 306.405 139.556 361.558 116.228C418.661 92.076 478.475 80 541 80C603.525 80 663.339 92.076 720.442 116.228C775.589 139.553 824.433 172.485 866.976 215.024C909.504 257.558 942.436 306.403 965.772 361.558C989.924 418.661 1002 478.475 1002 541C1002 603.52 989.924 663.334 965.772 720.442C942.445 775.602 909.513 824.447 866.976 866.976C824.433 909.517 775.589 942.449 720.442 965.772C663.334 989.924 603.52 1002 541 1002C478.475 1002 418.661 989.924 361.558 965.772C306.407 942.445 257.562 909.513 215.024 866.976C172.487 824.442 139.555 775.597 116.228 720.442C92.076 663.339 80 603.525 80 541L80 541ZM81.7039 541C81.7039 603.298 93.735 662.891 117.797 719.779C141.037 774.728 173.847 823.393 216.228 865.771C258.612 908.152 307.276 940.963 362.221 964.202C419.117 988.265 478.71 1000.3 541 1000.3C603.294 1000.3 662.886 988.265 719.778 964.202C774.719 940.967 823.383 908.157 865.771 865.771C908.152 823.393 940.962 774.728 964.202 719.779C988.264 662.885 1000.3 603.292 1000.3 541C1000.3 478.706 988.264 419.113 964.202 362.222C940.962 307.27 908.152 258.605 865.771 216.229C823.388 173.847 774.723 141.037 719.778 117.798C662.886 93.7353 603.294 81.7042 541 81.7042C478.706 81.7042 419.113 93.7353 362.221 117.798C307.271 141.039 258.607 173.85 216.228 216.229C173.849 258.608 141.039 307.272 117.797 362.222C93.735 419.109 81.7039 478.702 81.7039 541L81.7039 541Z" id="circle_3" fill="#801B1B" fill-rule="evenodd" stroke="none" />
    <path d="M120 540C120 482.898 131.028 428.274 153.085 376.128C174.39 325.76 204.464 281.154 243.308 242.308C282.154 203.463 326.76 173.389 377.128 152.085C429.276 130.028 483.9 119 541 119C598.1 119 652.724 130.028 704.872 152.085C755.234 173.386 799.84 203.461 838.692 242.308C877.53 281.152 907.604 325.758 928.915 376.128C950.972 428.276 962 482.9 962 540C962 597.096 950.972 651.72 928.915 703.872C907.612 754.246 877.538 798.853 838.692 837.692C799.84 876.542 755.234 906.616 704.872 927.915C652.72 949.972 598.096 961 541 961C483.9 961 429.276 949.972 377.128 927.915C326.762 906.612 282.156 876.538 243.308 837.692C204.462 798.849 174.388 754.242 153.085 703.872C131.028 651.724 120 597.1 120 540L120 540ZM121.556 540C121.556 596.893 132.543 651.315 154.517 703.266C175.74 753.448 205.704 797.89 244.408 836.591C283.113 875.295 327.555 905.259 377.733 926.482C429.692 948.456 484.115 959.444 540.999 959.444C597.888 959.444 652.31 948.456 704.265 926.482C754.439 905.263 798.881 875.299 837.591 836.591C876.295 797.89 906.258 753.448 927.481 703.266C949.456 651.309 960.443 596.887 960.443 540C960.443 483.111 949.456 428.689 927.481 376.734C906.258 326.55 876.295 282.108 837.591 243.408C798.885 204.704 754.443 174.74 704.265 153.518C652.31 131.543 597.888 120.556 540.999 120.556C484.11 120.556 429.688 131.543 377.733 153.518C327.551 174.743 283.109 204.707 244.408 243.408C205.706 282.11 175.742 326.552 154.517 376.734C132.543 428.685 121.556 483.107 121.556 540L121.556 540Z" id="circle_4" fill="#6F3702" fill-rule="evenodd" stroke="none" />
    <path d="M160 541C160 489.324 169.98 439.889 189.941 392.697C209.222 347.115 236.439 306.747 271.592 271.592C306.747 236.438 347.115 209.221 392.697 189.941C439.891 169.98 489.326 160 541 160C592.674 160 642.109 169.98 689.303 189.941C734.879 209.219 775.247 236.436 810.408 271.592C845.555 306.745 872.772 347.114 892.059 392.697C912.02 439.891 922 489.326 922 541C922 592.671 912.02 642.105 892.059 689.303C872.78 734.89 845.563 775.258 810.408 810.408C775.247 845.566 734.879 872.783 689.303 892.059C642.105 912.02 592.671 922 541 922C489.326 922 439.891 912.02 392.697 892.059C347.117 872.78 306.749 845.563 271.592 810.408C236.437 775.255 209.22 734.886 189.941 689.303C169.98 642.109 160 592.674 160 541L160 541ZM161.408 541C161.408 592.488 171.352 641.739 191.238 688.754C210.445 734.168 237.562 774.387 272.588 809.412C307.616 844.438 347.836 871.555 393.246 890.762C440.269 910.648 489.52 920.592 541 920.592C592.484 920.592 641.735 910.648 688.754 890.762C734.161 871.559 774.38 844.442 809.412 809.412C844.438 774.387 871.555 734.168 890.762 688.754C910.648 641.733 920.592 592.482 920.592 541C920.592 489.516 910.648 440.265 890.762 393.246C871.555 347.83 844.438 307.611 809.412 272.588C774.384 237.561 734.164 210.445 688.754 191.238C641.735 171.352 592.484 161.408 541 161.408C489.516 161.408 440.265 171.352 393.246 191.238C347.832 210.447 307.613 237.564 272.588 272.588C237.564 307.613 210.447 347.832 191.238 393.246C171.352 440.261 161.408 489.513 161.408 541L161.408 541Z" id="circle_5" fill="#560600" fill-rule="evenodd" stroke="none" />
  </g>
</svg>